PathFileType	4	(X/Y/Z)	Patient4_TMGait_0pt5_01_right_27.trc.trc
DataRate	CameraRate	NumFrames	NumMarkers	Units	OrigDataRate	OrigDataStartFrame	OrigNumFrames
75.675675675676	75.675675675676	6	33	mm	75.675675675676	53	       141
Frame#	Time	L.ASIS			Sacral			L.Shoulder			Chest			R.Shoulder			Neck			R.ASIS			R.Thigh.Superior			R.Thigh.Lateral			R.Thigh.Inferior			R.Patella			L.Thigh.Superior			L.Thigh.Lateral			L.Thigh.Inferior			L.Patella			L.Shank.Superior			L.Shank.Lateral			L.Shank.Inferior			R.Shank.Superior			R.Shank.Lateral			R.Shank.Inferior			R.Heel			R.Midfoot.Superior			R.Midfoot.Lateral			R.Toe			L.Heel			L.Midfoot.Lateral			L.Midfoot.Superior			L.Toe			L.Elbow			L.Wrist			R.Elbow			R.Wrist			
		X1	Y1	Z1	X2	Y2	Z2	X3	Y3	Z3	X4	Y4	Z4	X5	Y5	Z5	X6	Y6	Z6	X7	Y7	Z7	X8	Y8	Z8	X9	Y9	Z9	X10	Y10	Z10	X11	Y11	Z11	X12	Y12	Z12	X13	Y13	Z13	X14	Y14	Z14	X15	Y15	Z15	X16	Y16	Z16	X17	Y17	Z17	X18	Y18	Z18	X19	Y19	Z19	X20	Y20	Z20	X21	Y21	Z21	X22	Y22	Z22	X23	Y23	Z23	X24	Y24	Z24	X25	Y25	Z25	X26	Y26	Z26	X27	Y27	Z27	X28	Y28	Z28	X29	Y29	Z29	X30	Y30	Z30	X31	Y31	Z31	X32	Y32	Z32	X33	Y33	Z33	

53	36.117142857143	857.805451088450	964.904567843135	367.454734594713	651.188476160464	1015.807216705865	530.187574183072	838.924602541506	1441.165126692536	357.033923768436	944.246479084063	1359.618781795823	511.432237714652	873.098279883286	1433.773550031422	691.759099251605	850.735185866410	1497.884336992874	510.174191024740	879.012131956712	942.363211432943	640.690794538152	909.014105613185	740.224644770060	611.006583668880	821.207668861707	635.508582859000	667.136786878231	896.659461195880	579.868194790000	587.721024974101	892.133407203762	491.501588524121	591.850393373980	932.968846178317	780.231885695156	390.522759404348	882.974135452199	655.034422241397	313.313230100411	984.271853426477	591.020295150094	372.878746974515	1002.741273164790	510.757824706935	365.881023740141	959.394283784615	437.288532704360	356.678759521435	844.303162953839	347.371559784152	306.675592683760	882.273014039550	221.944019906464	360.271299425395	861.323963286067	404.900412700252	595.576109844287	784.124235912469	303.144228116067	651.631998425035	823.979911027250	207.983718886425	587.562737287773	681.738802339028	47.410860147066	549.725640409957	854.688434669357	97.617804815996	590.181392927888	764.244485651919	37.645841168791	625.300685793600	972.501903571257	39.262444914732	618.757417648127	733.574283575561	84.004792477392	398.362535284290	800.441839774280	72.827032552278	313.506416111137	893.224167908600	121.855559552550	333.927996941285	1008.395553687842	55.760775399616	295.272738600508	777.186102928763	1090.562423999437	239.060310433525	884.213684529155	851.125217498743	219.337081045783	897.482832052696	1088.871376386721	813.699562353264	1073.513407185691	897.307577036801	801.790478386294	
54	36.130357142857	856.245194630176	964.918579534732	366.949392339914	650.366229408687	1015.980174427738	530.878088961158	837.568956819506	1441.344462996119	357.563428600718	943.791109077798	1359.278221642161	511.045812477558	874.052382512915	1433.189651621692	692.005140061884	850.373467487241	1497.672574942329	510.771965433377	878.456286624446	941.948107944403	640.069050372732	906.667482689830	739.484649621496	610.011098418454	818.536256461679	635.292764271891	666.976835976319	892.996179695693	579.081372672899	587.170384637608	887.685964034525	490.844641005193	591.403885151830	931.030324827399	780.553785894717	390.527001540070	882.060724802125	655.372262134911	312.785514190095	982.766759177872	591.702712694819	373.643286073386	1002.997009145248	513.488016604304	366.347112308842	963.646083579432	439.638690002381	356.430573198710	854.850629098816	343.005042461909	305.305841001883	900.317956033975	219.795853024849	358.960869029253	856.522257372256	404.331035260969	595.260407984401	778.892790674575	303.002995370453	651.492353917614	818.046792089912	207.615950499704	587.367170175755	675.120998208059	47.337847524757	549.797185581804	847.992223377536	97.530928518151	590.116765951391	757.579765328188	37.627224096181	625.355946707350	965.813328402337	39.202397060180	618.824151630601	760.256482146444	72.878581460769	396.006409544678	828.506216367165	65.622591298020	311.732932743591	918.042236327910	120.162505395932	332.737488795084	1037.330850356525	60.995105976551	295.275187002633	770.273940384815	1091.772143213929	239.800706745125	868.021816404247	848.704067288796	217.767780732003	906.742386978489	1089.471670850787	814.193635745876	1090.544665561613	905.623983840866	800.174699418106	
55	36.143571428571	854.735883294845	964.751858062143	366.310631606899	649.596214806029	1015.979106747528	531.445502064318	836.175954431555	1441.393200898318	357.919368124508	943.282799942215	1358.840414207702	510.503077993009	874.889709198171	1432.475619092035	692.057750813890	849.942065006028	1497.340925835643	511.186469784157	877.946038959866	941.450038611104	639.338865486101	904.387554019363	738.640862388932	609.023876400151	815.894016774969	634.961025989113	666.742362950356	889.393103413402	578.216797292102	586.587601793126	883.300263162772	490.104777941126	590.896135556552	928.872814650559	780.499415383046	390.543699204781	880.928383266314	655.470892519262	312.081108577260	980.915038692879	591.996905650194	374.329641615959	1002.803373086771	515.894848026047	366.807060196158	967.406716060366	441.958802140592	356.224172645850	865.349181820841	339.028739366076	303.825620171965	917.922420036036	218.520406318807	357.815226346905	851.746447142002	403.657245000154	594.871378989176	773.678371529866	302.768968099514	651.290427176750	812.088305195595	207.160117277973	587.115358438909	668.477740893354	47.169663181313	549.863328484438	841.246207415684	97.419492170853	590.001111186448	750.891811103259	37.585574775639	625.414098798582	959.110179689171	39.169079014269	618.876014570676	786.699236355432	63.471724861520	393.656423243742	856.424208288132	59.801814463947	310.248561557806	942.463859007025	119.500171867404	331.936667703111	1065.448839700506	67.066367621221	296.286698835462	763.548868409348	1092.912394714398	240.408818270157	852.170631966390	846.687440649295	216.164761810871	915.471264422445	1090.142325918132	814.389919519628	1106.730004653205	914.407286627211	798.044785379690	
56	36.156785714286	853.279708554977	964.423550497939	365.558603082402	648.881304517717	1015.804949691541	531.893641098140	834.757413997702	1441.307204011807	358.088679021034	942.721455312326	1358.319007681778	509.808204744290	875.593156650058	1431.659396856841	691.911206912225	849.444529545369	1496.899084463061	511.398830621741	877.500648989309	940.879034846922	638.518535866715	902.196560703390	737.693811985765	608.060488662247	813.283186817682	634.516559778335	666.424362824221	885.851952564644	577.278585162488	585.968768345080	878.981982686361	489.284319530180	590.317080100767	926.586532593523	780.136585659142	390.539297585376	879.665414199217	655.377874660027	311.194971319421	978.878215915608	591.976153134000	374.841768607924	1002.281109749111	517.989079939224	367.200164010177	970.717525688534	444.239212585284	356.021332950852	875.643598968271	335.541415724355	302.283239127845	934.824612212738	218.117435316738	356.839415352427	846.997694265919	402.880757712072	594.401473876646	768.480287389018	302.445701695750	651.020973018548	806.107537948027	206.620991754542	586.803221461432	661.804862699068	46.912703248172	549.919253522180	834.453189499009	97.286944193731	589.836394212333	744.179274829167	37.523005063387	625.472823214924	952.393487141551	39.164998750529	618.912387750033	812.409203275759	55.906966398851	391.401980658345	883.693396356930	55.380265471889	309.115736710200	966.107430311299	119.801740239355	331.519850236590	1092.339298834519	73.738611649358	298.262903887467	757.041828009693	1093.961912158407	240.870496152131	836.795023352030	845.044306593577	214.557271079591	923.639575149800	1090.852658516536	814.261122700184	1121.996297890659	923.606938354517	795.407922833726	
57	36.170000000000	851.886619146488	963.958127352880	364.708948687050	648.226480680303	1015.460597168928	532.224285555244	833.319664313877	1441.085148244493	358.060935779577	942.106585611554	1357.731483691143	508.965757058043	876.147886065994	1430.773877492216	691.563576177336	848.879599468386	1496.359631529050	511.393678558164	877.136459740789	940.241121512668	637.619914689523	900.116690548982	736.649321527918	607.115669603454	810.717292988597	633.968137642280	666.013250694079	882.378039293442	576.273356849456	585.300333834684	874.741153237562	488.387130640484	589.654028693564	924.284072966019	779.541786774459	390.472780872648	878.363847109817	655.132319573385	310.147856462529	976.822380721816	591.712010436588	375.107334192432	1001.559991928675	519.779055727171	367.480029409240	973.628503412286	446.446036208830	355.787249299630	885.543005043767	332.593737784685	300.746772452120	950.756097612245	218.503107588259	356.021790889909	842.281926303570	402.006921894747	593.843326470411	763.304708307841	302.041137325750	650.681867832095	800.112575379953	206.006559816380	586.427764095754	655.102173584584	46.580306997503	549.961347922432	827.620234423524	97.138808474689	589.628378108216	737.442959011386	37.443238626240	625.529398295004	945.665122361974	39.191080408877	618.933223428634	836.873518463614	50.174445191512	389.337279696597	909.760435001052	52.269852883848	308.363312988262	988.564212217597	120.912427643800	331.434806709965	1117.578105607253	80.696507384321	301.027844778042	750.779443250080	1094.902526192953	241.166720684717	822.026281835965	843.737930047690	212.963396594083	931.220525086284	1091.571090682414	813.778373804041	1136.279778312394	933.168369569559	792.273386464773	
58	36.183214285714	850.576039270366	963.382059663732	363.772476454356	647.641201586100	1014.950058493929	532.436194619901	831.862419561481	1440.729069962471	357.828646671691	941.437378750452	1357.098711797651	507.979414803750	876.542257779717	1429.853754880377	691.015935676992	848.241246053508	1495.737258448207	511.160339360582	876.869709700928	939.541974004081	636.649358596873	898.169505589914	735.519204427693	606.166294458559	808.220804438425	633.329736366949	665.502233990144	878.982332193375	575.210073906321	584.564035343972	870.592405879330	487.418513908664	588.895834492597	922.096031447961	778.793973781640	390.299836557099	877.112199639635	654.759815489032	308.985765825570	974.907336246897	591.269104249213	375.083757601006	1000.774893134969	521.269948289188	367.615263665974	976.195357960467	448.522144435293	355.495943310374	894.834931776076	330.187048530684	299.296871785763	965.450121162874	219.519456082551	355.341894136620	837.610865717876	401.045319533886	593.192913626898	758.165029190233	301.568112440012	650.275962646385	794.116244592404	205.328484792881	585.989110817208	648.373533904348	46.192576138624	549.988100184474	820.758349685256	96.982082275146	589.386587616828	730.686326153195	37.351298299894	625.581098253394	938.927931855742	39.245847190973	618.939288171755	859.581413546850	46.142799994013	387.559429345518	934.042571601279	50.297359649567	307.988149009429	1009.408975152030	122.608275324581	331.595037104967	1140.734765762863	87.574424899440	304.291546719006	744.784499772279	1095.719081012328	241.277084829270	807.985688789158	842.724857410658	211.390625393350	938.189276746506	1092.266522542316	812.915040685533	1149.524967327174	943.033643897085	788.652153641191	
